# xmcd
#
# Track frame offsets:
#	205
#	9188
#	21652
#	35819
#	46950
#	60640
#	76983
#	90433
#	104770
#	120400
#	133176
#	144582
#	157838
#	170662
#	185169
#
# Disc length: 2588 seconds
#
# Revision: 1
# Processed by: cddbd v1.5.2PL0 Copyright (c) Steve Scherf et al.
# Submitted via: audiograbber 1.83.01
#
DISCID=cb0a1a0f
DTITLE=Franz and Sepp Kalthuber - G'sungen beim Absetzwirt 3
DYEAR=2014
DGENRE=Folklore
TTITLE0=Mir san die Buam vom Stainzertal
TTITLE1=Vor mein Dirndl ihr'n Fenster
TTITLE2=Wo der Wildbach rauscht
TTITLE3=Almenrausch, bist a schoens Bluemerl
TTITLE4=Holzschlagpolka (instrumental)
TTITLE5=Die alten Leut'
TTITLE6=Griass di Gott, Dirndl
TTITLE7=Sonntagsruh'
TTITLE8=Vor meinem Huetterl
TTITLE9=Ein blond gelockter junger Jaeger (2 rehbraune Augen)
TTITLE10=Ja unser Steirerland
TTITLE11=Hoellpolka (instrumental)
TTITLE12=Alpenfrieden
TTITLE13=Ja unsre Steirerdirndln
TTITLE14=Das Grill'-Loch
EXTD=
EXTT0=
EXTT1=
EXTT2=
EXTT3=
EXTT4=
EXTT5=
EXTT6=
EXTT7=
EXTT8=
EXTT9=
EXTT10=
EXTT11=
EXTT12=
EXTT13=
EXTT14=
PLAYORDER=
